<?xml version="1.0" encoding="UTF-8"?>
<!DOCTYPE svg PUBLIC "-//W3C//DTD SVG 1.1//EN" "http://www.w3.org/Graphics/SVG/1.1/DTD/svg11.dtd">
<!-- Creator: CorelDRAW 2017 -->
<svg xmlns="http://www.w3.org/2000/svg" xml:space="preserve" width="160px" height="160px" version="1.1" style="shape-rendering:geometricPrecision; text-rendering:geometricPrecision; image-rendering:optimizeQuality; fill-rule:evenodd; clip-rule:evenodd"
viewBox="0 0 160 160"
 xmlns:xlink="http://www.w3.org/1999/xlink">
 <defs>
  <style type="text/css">
   <![CDATA[
    .str0 {stroke:#2C3E50;stroke-width:5;stroke-miterlimit:22.9256}
    .fil5 {fill:none}
    .fil1 {fill:#C0392B}
    .fil0 {fill:#E74C3C}
    .fil2 {fill:#2C3E50;fill-rule:nonzero}
    .fil4 {fill:white;fill-rule:nonzero}
    .fil3 {fill:white;fill-rule:nonzero}
   ]]>
  </style>
 </defs>
 <g id="Layer_x0020_1">
  <metadata id="CorelCorpID_0Corel-Layer"/>
  <circle class="fil0" cx="80" cy="80" r="80"/>
  <path class="fil1" d="M159.98 78.65c0.01,0.45 0.02,0.9 0.02,1.35 0,44.18 -35.82,80 -80,80 -5.89,0 -11.62,-0.64 -17.14,-1.85l-40.04 -40.03 113.88 -1.55 5.67 -2.42 -19.46 -19.98 3.16 -5.69 -0.6 -44.34 34.51 34.51z"/>
  <path class="fil2" d="M136.7 116.57c-2.73,1.27 -8.88,0.27 -11.88,0.25 -15.14,-0.09 -30.36,-0.54 -45.47,-0.35 -15.8,0.21 -31.58,1.19 -47.4,0.83 -3.06,-0.07 -9.2,0.66 -9.52,-3.32 -0.21,-2.54 2.37,-4.14 4.09,-5.63 5.26,-4.57 11.28,-8.2 16.9,-12.29 0.16,-0.11 0.28,-0.24 0.38,-0.38 2.74,0.46 5.86,0.28 8.57,0.14 11.01,-0.58 22.08,-0.4 33.1,-0.76 5.47,-0.17 10.94,-0.29 16.42,-0.21 5.48,0.08 11.49,0.78 16.98,0.43 0.03,0.03 0.06,0.06 0.09,0.09 5.64,4.54 11.47,9.35 16.85,14.19 2.08,1.87 5.59,4.81 0.89,7.01zm-96.72 -37.58c-0.17,-5.31 -0.31,-10.63 -0.15,-15.94 0.15,-4.91 0.33,-9.7 0.22,-14.61 -0.07,-3.15 -0.05,-7.31 3.69,-8.53 2.03,-0.66 5.27,-0.03 7.38,-0.05 9.67,-0.05 19.35,-0.1 29.02,-0.16 6.24,0.23 12.52,0.35 18.75,0 4.68,-0.26 21.33,-1.87 23.05,3.8 0.62,2.01 0.12,4.86 0.11,6.97 -0.01,4.69 0.12,9.36 0.32,14.04 0.17,3.73 0.35,7.47 0.41,11.2 0.04,2.34 0.05,4.67 -0.01,7 -0.09,3.35 0.45,6.1 -2.55,7.89 -3.38,2.01 -9.43,0.88 -13.35,0.86 -4.33,-0.03 -8.66,-0.15 -12.99,-0.09 -8.49,0.12 -16.97,0.6 -25.47,0.68 -4.08,0.05 -8.18,-0.11 -12.26,0.06 -3.71,0.16 -10.14,1.67 -13.61,-0.23 -3.75,-2.05 -2.45,-9.36 -2.56,-12.89zm101.16 31.04c-1.99,-2.73 -5.03,-4.72 -7.69,-6.73 -3.72,-2.81 -7,-6.1 -10.54,-9.13 4.71,-3.19 3.44,-12.7 3.38,-17.5 -0.13,-10.21 -0.51,-20.45 -0.76,-30.66 -0.08,-2.93 -0.05,-6.32 -2.74,-8.26 -2.94,-2.14 -9.07,-1.28 -12.63,-1.56 -9.93,-0.79 -20.03,0.39 -30.02,0.02 -11.23,0.07 -22.47,0.13 -33.7,0.2 -3.06,0.02 -5.92,-0.31 -7.93,2.35 -2.57,3.39 -1.98,8.47 -1.82,12.4 0.5,12.47 -0.75,24.99 0.1,37.51 0.19,2.81 1.38,4.55 3.1,5.64 -4.66,3.3 -9.45,6.42 -13.91,9.99 -3.3,2.65 -7.05,5.14 -7.04,9.68 0.01,4 1.86,6.05 5.7,6.49 7.61,0.89 15.66,0.63 23.3,0.35 17.69,-0.64 35.34,-0.1 53.01,-0.58 7.66,-0.21 15.31,0 22.96,0.06 4.68,0.04 13.14,1.7 16.73,-2.2 2.17,-2.36 2.28,-5.63 0.5,-8.07z"/>
  <path class="fil3" d="M113.12 47.84c0.44,12.02 0.54,24.01 0.82,36.01 -10.97,-0.57 -22.26,-0.03 -33.22,0.43 -10.89,0.47 -21.86,0.47 -32.77,0.64 -0.19,-12.38 -0.38,-24.75 -0.57,-37.13 21.91,-0.2 43.83,0.29 65.74,0.05zm-66.46 39.71c11.33,-0.19 22.74,-0.17 34.06,-0.65 11.4,-0.49 23.17,-1.06 34.55,-0.37 0.7,0.04 1.33,-0.63 1.31,-1.31 -0.31,-12.9 -0.38,-25.78 -0.89,-38.7 -0.03,-0.7 -0.58,-1.31 -1.31,-1.3 -22.77,0.27 -45.55,-0.27 -68.33,-0.03 -0.31,0 -0.54,0.11 -0.74,0.26 -0.33,0.2 -0.57,0.53 -0.56,1.04 0.2,13.25 0.4,26.5 0.6,39.75 0.01,0.7 0.59,1.32 1.31,1.31z"/>
  <path class="fil3" d="M69.36 110.92c0.32,-1.08 0.7,-2.16 0.86,-3.21 0.15,-0.35 0.29,-0.71 0.44,-1.06 0.04,-0.01 0.07,-0.01 0.11,-0.01 3.42,-0.25 6.87,-0.27 10.29,-0.35 3.04,-0.08 6.25,-0.34 9.28,0.07 0.02,0.01 0.03,0.01 0.05,0.01 0.16,0.4 0.31,0.81 0.47,1.21 0.16,0.92 0.56,1.95 0.96,2.92 -7.31,0.94 -15.08,0.49 -22.46,0.42zm23.2 -6.15c-0.22,-0.57 -0.63,-0.91 -1.26,-0.96 -7.19,-0.48 -14.32,0.19 -21.51,0.22 -0.63,0.01 -1.03,0.42 -1.26,0.96 -0.95,2.31 -1.63,4.4 -2.12,6.87 -0.06,0.29 -0.02,0.55 0.06,0.77 0.15,0.48 0.54,0.89 1.2,0.89 8.6,-0.01 17.79,0.65 26.31,-0.69 0.66,-0.1 1.13,-0.99 0.91,-1.6 -0.78,-2.16 -1.5,-4.32 -2.33,-6.46z"/>
  <path class="fil4" d="M80.66 43.72c1.68,0 1.69,-2.61 0,-2.61 -1.68,0 -1.68,2.61 0,2.61z"/>
  <path class="fil3" d="M113.45 47.84c0.45,12.02 0.54,24 0.82,36.01 -10.97,-0.57 -22.26,-0.04 -33.22,0.43 -10.89,0.46 -21.86,0.47 -32.77,0.64 -0.19,-12.38 -0.38,-24.76 -0.57,-37.13 21.92,-0.21 43.83,0.28 65.74,0.05zm-66.46 39.71c11.33,-0.2 22.74,-0.18 34.06,-0.66 11.4,-0.48 23.17,-1.06 34.55,-0.37 0.7,0.04 1.33,-0.63 1.31,-1.3 -0.31,-12.91 -0.38,-25.78 -0.89,-38.7 -0.03,-0.7 -0.58,-1.32 -1.31,-1.31 -22.77,0.28 -45.55,-0.27 -68.33,-0.03 -0.31,0.01 -0.54,0.12 -0.73,0.26 -0.34,0.2 -0.58,0.54 -0.57,1.05 0.2,13.25 0.4,26.5 0.61,39.75 0,0.7 0.58,1.32 1.3,1.31z"/>
  <path class="fil4" d="M80.99 43.71c1.68,0 1.69,-2.61 0,-2.61 -1.68,0 -1.68,2.61 0,2.61z"/>
  <path class="fil5 str0" d="M88.98 62.08c8.16,0.88 16.58,0.44 24.83,0.44"/>
  <path class="fil5 str0" d="M48.56 68.87c8.17,0.89 16.58,0.44 24.84,0.44"/>
  <path class="fil4" d="M89.95 64.84c3.28,0 3.28,-5.33 0,-5.33 -3.28,0 -3.29,5.33 0,5.33z"/>
  <path class="fil4" d="M72.59 71.38c3.28,0 3.28,-5.32 0,-5.32 -3.28,0 -3.28,5.32 0,5.32z"/>
  <path class="fil5 str0" d="M61.45 78.94c2.68,-0.39 21.29,1.67 21.96,-1 0.33,-1.29 -0.58,-5.83 -0.21,-8.09"/>
  <path class="fil5 str0" d="M48.17 79.38c1.04,-0.01 2.08,-0.01 3.12,-0.01"/>
  <path class="fil5 str0" d="M47.88 59.18c8.77,-1.08 21.24,2.79 28.1,-3.32 0.01,-0.01 3.51,-2.04 3.53,-2.04"/>
  <path class="fil4" d="M83.2 72.51c3.28,0 3.28,-5.32 0,-5.32 -3.28,0 -3.29,5.32 0,5.32z"/>
  <path class="fil4" d="M78.96 56.71c3.28,0 3.28,-5.32 0,-5.32 -3.28,0 -3.29,5.32 0,5.32z"/>
  <path class="fil5 str0" d="M114.12 75.09c-4.86,0.04 -9.72,0.02 -14.57,0.02"/>
  <path class="fil5 str0" d="M95.71 75.19c-1.7,0 -3.39,0 -5.08,0"/>
 </g>
</svg>
